# xmcd
#
# Track frame offsets:
#	150
#	19800
#	35477
#	48915
#	64848
#	76241
#	87593
#	104593
#	119922
#	137204
#	150644
#	167299
#	180717
#	200372
#	212206
#	224891
#	238466
#	248656
#	262096
#	273923
#
# Disc length: 3847 seconds
#
# Revision: 1
# Processed by: cddbd v1.5.1PL0 Copyright (c) Steve Scherf et al.
# Submitted via: audiograbber 1.82.02
#
DISCID=340f0514
DTITLE=Chicken Shack - The Best Of
DYEAR=1900
DGENRE=Blues
TTITLE0=The Letter
TTITLE1=When The Rain Comes Back
TTITLE2=Lonesome Whistle Blues
TTITLE3=You Ain't No Good
TTITLE4=Baby's Got Me crying
TTITLE5=Right Way Is My Way
TTITLE6=Get Like You Used To Be
TTITLE7=A Woman Is The Blues
TTITLE8=I Wanna See My Baby
TTITLE9=Remington Ride
TTITLE10=Mean Old World
TTITLE11=San Ho Zay
TTITLE12=The Way It Is
TTITLE13=Tears In The Wind
TTITLE14=Maudie
TTITLE15=Some Other Time
TTITLE16=Andalucian Blues
TTITLE17=Crazy 'Bout Tou Baby
TTITLE18=Close To Me
TTITLE19=I'd Rather Go Blind
EXTD=
EXTT0=
EXTT1=
EXTT2=
EXTT3=
EXTT4=
EXTT5=
EXTT6=
EXTT7=
EXTT8=
EXTT9=
EXTT10=
EXTT11=
EXTT12=
EXTT13=
EXTT14=
EXTT15=
EXTT16=
EXTT17=
EXTT18=
EXTT19=
PLAYORDER=
